0
SECTION
2
HEADER
9
$ACADVER
1
AC1009
0
ENDSEC
0
SECTION
2
TABLES
0
TABLE
2
LAYER
70
1
0
LAYER
2
0
70
0
62
7
6
CONTINUOUS
0
ENDTAB
0
ENDSEC
0
SECTION
2
BLOCKS
0
ENDSEC
0
SECTION
2
ENTITIES
0
TEXT
8
0
10
20
20
275
40
8
1
MVP RAMEN MACHINE - VERIFIED CONTROL CIRCUIT V0.2
0
TEXT
8
0
10
20
20
262
40
4
1
SOURCE: PLC MVP_V2_012 - Conveyor_ModbusRTU_Control
0
LINE
8
0
10
25
20
190
11
95
21
190
0
LINE
8
0
10
95
20
190
11
95
21
245
0
LINE
8
0
10
95
20
245
11
25
21
245
0
LINE
8
0
10
25
20
245
11
25
21
190
0
TEXT
8
0
10
35
20
230
40
6
1
PLC-1
0
TEXT
8
0
10
31
20
216
40
5
1
DELTA AS228T-A
0
TEXT
8
0
10
31
20
203
40
4
1
COM2 RS-485 MASTER
0
LINE
8
0
10
95
20
225
11
165
21
225
0
LINE
8
0
10
95
20
208
11
165
21
208
0
TEXT
8
0
10
103
20
229
40
4
1
D+ / A
0
TEXT
8
0
10
103
20
212
40
4
1
D- / B
0
LINE
8
0
10
165
20
190
11
245
21
190
0
LINE
8
0
10
245
20
190
11
245
21
245
0
LINE
8
0
10
245
20
245
11
165
21
245
0
LINE
8
0
10
165
20
245
11
165
21
190
0
TEXT
8
0
10
180
20
230
40
6
1
DRV-1
0
TEXT
8
0
10
174
20
216
40
5
1
VECTOR-S100
0
TEXT
8
0
10
174
20
203
40
4
1
MODBUS RTU SLAVE 1
0
TEXT
8
0
10
25
20
165
40
5
1
38400 bps, 8N1, RS-485 / PLC FUNCTION: MODRWE
0
TEXT
8
0
10
25
20
150
40
4
1
SPEED REGISTER 40001 / S4=16#0001
0
TEXT
8
0
10
25
20
139
40
4
1
RUN COIL 1 / S4=16#0001
0
TEXT
8
0
10
25
20
128
40
4
1
DIRECTION COIL 2 / S4=16#0002
0
TEXT
8
0
10
25
20
117
40
4
1
485 MODE COIL 4 / S4=16#0004
0
TEXT
8
0
10
25
20
85
40
5
1
CONTROL VOLTAGE: 24VDC
0
TEXT
8
0
10
25
20
72
40
4
1
OUTPUT LOADS USE INTERPOSING RELAYS.
0
TEXT
8
0
10
25
20
55
40
4
1
NO UNVERIFIED PHYSICAL X/Y POINTS ARE INCLUDED.
0
ENDSEC
0
EOF
